<svg xmlns="http://www.w3.org/2000/svg" xmlns:xlink="http://www.w3.org/1999/xlink" id="body_1" preserveAspectRatio="xMinYMin meet" viewBox="0 0 1279 720"><defs><clipPath id="1"><path id="" clip-rule="evenodd" transform="matrix(1 0 0 1 0 0)" d="M0 540L0 0L0 0L959 0L959 0L959 540L959 540L0 540z" /></clipPath><clipPath id="2"><path id="" clip-rule="evenodd" transform="matrix(1 0 0 1 0 0)" d="M0 539.6727L958.9091 539.6727L958.9091 539.6727L958.9091 0.3272095L958.9091 0.3272095L0 0.3272095z" /></clipPath><clipPath id="3"><path id="" clip-rule="evenodd" transform="matrix(1 0 0 1 0 0)" d="M836.2236 60.5029L915.5212 60.5029L915.5212 60.5029L915.5212 15.16284L915.5212 15.16284L836.2236 15.16284z" /></clipPath><clipPath id="4"><path id="" clip-rule="evenodd" transform="matrix(1 0 0 1 0 0)" d="M756.3463 58.81299L836.2238 58.81299L836.2238 58.81299L836.2238 20.82587L836.2238 20.82587L756.3463 20.82587z" /></clipPath><clipPath id="5"><path id="" clip-rule="evenodd" transform="matrix(1 0 0 1 0 0)" d="M0 539.6727L958.9091 539.6727L958.9091 539.6727L958.9091 0.3272095L958.9091 0.3272095L0 0.3272095z" /></clipPath><clipPath id="6"><path id="" clip-rule="evenodd" transform="matrix(1 0 0 1 0 0)" d="M0 455.1636L950.5041 455.1636L950.5041 455.1636L950.5041 66.13034L950.5041 66.13034L0 66.13034z" /></clipPath><clipPath id="7"><path id="" clip-rule="evenodd" transform="matrix(1 0 0 1 0 0)" d="M0 539.6727L958.9091 539.6727L958.9091 539.6727L958.9091 0.3272095L958.9091 0.3272095L0 0.3272095z" /></clipPath><clipPath id="8"><path id="" clip-rule="evenodd" transform="matrix(1 0 0 1 0 0)" d="M31.9185 60.46719L279.1065 60.46719L279.1065 60.46719L279.1065 20.82581L279.1065 20.82581L31.9185 20.82581z" /></clipPath><clipPath id="9"><path id="" clip-rule="evenodd" transform="matrix(1 0 0 1 0 0)" d="M286.804 58.1828L366.1017 58.1828L366.1017 58.1828L366.1017 20.82593L366.1017 20.82593L286.804 20.82593z" /></clipPath></defs><g transform="matrix(1.333333 0 0 1.333333 0 0)"><g clip-path="url(#1)"><g clip-path="url(#2)"><path id="1" transform="matrix(1 0 0 -1 0 540)" d="M0 0.3272705L958.7682 0.3272705L958.7682 0.3272705L958.7682 539.6727L958.7682 539.6727L0 539.6727z" stroke="none" fill="#FFFFFF" fill-rule="evenodd" /><path id="2" transform="matrix(1 0 0 -1 0 540)" d="M82.54044 286.0844C 82.54044 290.2331 85.90427 293.5963 90.05376 293.5963L90.05376 293.5963L120.106 293.5963C 124.2555 293.5963 127.6193 290.2331 127.6193 286.0844L127.6193 286.0844L127.6193 238.1846C 127.6193 234.0359 124.2555 230.6727 120.106 230.6727L120.106 230.6727L90.05376 230.6727C 85.90427 230.6727 82.54044 234.0359 82.54044 238.1846z" stroke="none" fill="#FF8A0B" fill-rule="evenodd" /><path id="3" transform="matrix(1 0 0 -1 0 540)" d="M29.96931 286.0844C 29.96931 290.2331 33.33314 293.5963 37.48264 293.5963L37.48264 293.5963L67.53486 293.5963C 71.68436 293.5963 75.04819 290.2331 75.04819 286.0844L75.04819 286.0844L75.04819 238.1846C 75.04819 234.0359 71.68436 230.6727 67.53486 230.6727L67.53486 230.6727L37.48264 230.6727C 33.33314 230.6727 29.96931 234.0359 29.96931 238.1846z" stroke="none" fill="#FEBE38" fill-rule="evenodd" /><path id="4" transform="matrix(1 0 0 -1 0 540)" d="M22.47706 287.4163L22.47706 237.602C 22.47706 233.982 19.54189 231.0473 15.92118 231.0473L15.92118 231.0473L7.775621E-05 231.0473L7.775621E-05 231.0473L7.775621E-05 293.971L7.775621E-05 293.971L15.92118 293.971C 19.54189 293.971 22.47706 291.0364 22.47706 287.4163z" stroke="none" fill="#99C824" fill-rule="evenodd" /><path id="5" transform="matrix(1 0 0 -1 0 540)" d="M958.7682 95.21223L958.7682 0.3273975L958.7682 0.3273975L1.009113E-05 0.3273975L1.009113E-05 0.3273975L1.009113E-05 54.16648C 253.0414 48.48543 749.5088 68.95978 958.7682 95.21223z" stroke="none" fill="#000000" fill-rule="evenodd" fill-opacity="0.07450981" /><path id="6" transform="matrix(1 0 0 -1 0 540)" d="M958.7682 114.3139L958.7682 99.39375C 902.9025 91.85387 826.567 84.75706 739.8569 78.53676C 501.776 62.59895 185.4872 52.70609 1.009113E-05 56.87179L1.009113E-05 56.87179L1.009113E-05 66.86487C 469.071 63.41941 698.4558 89.09801 958.7682 114.3139zM0.7995063 -0.7962772L958.7682 -0.7962772L958.7682 -0.7962772L958.7682 -0.7963853L958.7682 -0.7963853L0.7995063 -0.7963853z" stroke="none" fill="#000000" fill-rule="evenodd" fill-opacity="0.05098039" /><path id="7" transform="matrix(1 0 0 -1 0 540)" d="M0 0.3272629L958.7682 0.3272629L958.7682 0.3272629L958.7682 122.8036L958.7682 122.8036L0 122.8036z" stroke="none" fill="#FEFFFF" fill-rule="evenodd" /></g><g clip-path="url(#3)"><g transform="matrix(0.3276764 0 0 0.3261877 836.2236 15.16278)"><g transform="matrix(1 0 0 1 0 0)"><image x="0" y="0" xlink:href="img_01.png" width="242" height="139" /></g></g></g><g clip-path="url(#4)"><g transform="matrix(0.1827859 0 0 0.1826308 756.3463 20.82581)"><g transform="matrix(1 0 0 1 0 0)"><image x="0" y="0" xlink:href="img_02.png" width="437" height="208" /></g></g></g><g clip-path="url(#5)"></g><g clip-path="url(#6)"><g transform="matrix(0.7980723 0 0 0.7923287 0 66.13025)"><g transform="matrix(1 0 0 1 0 0)"><image x="0" y="0" xlink:href="img_03.png" width="1191" height="491" /></g></g></g><g clip-path="url(#7)"></g><g clip-path="url(#8)"><g transform="matrix(0.9189145 0 0 0.9218935 31.9185 20.82581)"><g transform="matrix(1 0 0 1 0 0)"><image x="0" y="0" xlink:href="img_04.png" width="269" height="43" /></g></g></g><g clip-path="url(#9)"><g transform="matrix(0.2425006 0 0 0.2425776 286.804 20.82587)"><g transform="matrix(1 0 0 1 0 0)"><image x="0" y="0" xlink:href="img_05.png" width="327" height="154" /></g></g></g></g></g></svg>